<svg id='MacBook_24' width='24' height='24' viewBox='0 0 24 24' xmlns='http://www.w3.org/2000/svg' xmlns:xlink='http://www.w3.org/1999/xlink'><rect width='24' height='24' stroke='none' fill='#000000' opacity='0'/>


<g transform="matrix(0.45 0 0 0.45 12 12)" >
<path style="stroke: none; stroke-width: 1; stroke-dasharray: none; stroke-linecap: butt; stroke-dashoffset: 0; stroke-linejoin: miter; stroke-miterlimit: 4; fill: rgb(0,0,0); fill-rule: nonzero; opacity: 1;" transform=" translate(-24, -24)" d="M 9.5 9 C 7.57 9 6 10.57 6 12.5 L 6 31.5 C 6 33.43 7.57 35 9.5 35 L 38.5 35 C 40.43 35 42 33.43 42 31.5 L 42 12.5 C 42 10.57 40.43 9 38.5 9 L 9.5 9 z M 27.476562 14.013672 C 27.583813 14.034797 27.684031 14.079484 27.769531 14.146484 C 27.940531 14.279484 28.024187 14.483547 27.992188 14.685547 C 27.976188 14.781547 27.82 15.659531 27 16.644531 C 26.124 17.699531 24.871359 17.973375 24.818359 17.984375 C 24.767359 17.995375 24.716016 18.001953 24.666016 18.001953 C 24.507016 18.001953 24.350516 17.949516 24.228516 17.853516 C 24.066516 17.727516 23.983906 17.538703 24.003906 17.345703 C 24.008906 17.296703 24.137297 16.128359 25.154297 15.193359 C 26.112297 14.313359 27.043484 14.050438 27.146484 14.023438 C 27.254984 13.994937 27.369312 13.992547 27.476562 14.013672 z M 21.455078 19 C 22.728078 19 22.909281 19.667969 24.363281 19.667969 C 25.817281 19.667969 26.000438 19 27.273438 19 C 28.117438 19 28.844078 19.292031 29.455078 19.832031 C 28.449078 20.368031 27.818359 21.483 27.818359 22.75 C 27.818359 24.221 28.726953 25.432031 30.001953 25.832031 C 29.165953 27.708031 27.818797 29 27.091797 29 C 26.000797 29 25.635281 28.332031 24.363281 28.332031 C 23.090281 28.332031 22.727719 29 21.636719 29 C 20.544719 29 18 26.167969 18 22.667969 C 18 20.500969 19.597078 19 21.455078 19 z M 3.5 36 C 2.9590461251336433 35.99234956568177 2.4558779531425827 36.27656294425399 2.1831684177702146 36.74380927457149 C 1.9104588823978466 37.21105560488899 1.9104588823978463 37.78894439511101 2.183168417770214 38.25619072542851 C 2.4558779531425827 38.723437055746004 2.959046125133643 39.00765043431823 3.4999999999999996 39 L 44.5 39 C 45.040953874866354 39.00765043431823 45.54412204685742 38.72343705574601 45.81683158222979 38.25619072542851 C 46.08954111760215 37.78894439511101 46.08954111760215 37.21105560488899 45.81683158222979 36.74380927457149 C 45.54412204685742 36.27656294425399 45.040953874866354 35.99234956568177 44.5 36 L 3.5 36 z" stroke-linecap="round" />
</g>
</svg>
