<svg xmlns="http://www.w3.org/2000/svg" viewBox="0 0 64 64" width="64" height="64" fill="none" stroke="currentColor" stroke-width="2" stroke-linecap="round" stroke-linejoin="round">
  <!-- Screen -->
  <rect x="12" y="10" width="40" height="28" rx="2" ry="2" fill="#f5f5f5" stroke="currentColor"/>
  <!-- Base -->
  <path d="M8 44h48c1.1 0 2 .9 2 2v1H6v-1c0-1.1.9-2 2-2z" fill="#e5e5e5" stroke="currentColor"/>
  <!-- Hinge -->
  <line x1="12" y1="38" x2="52" y2="38" stroke="currentColor"/>
  <!-- Apple Logo -->
  <path d="M32.5 20c1.2 0 2.3-.7 3-1.7.8-1 .6-2.4.6-2.4s-1.3.1-2.5 1.1c-.8.6-1.5 1.5-1.5 2.5 0 .8.4 1.5.9 1.5zm-2.2 2.4c-1.3-.1-2.9.9-3.7 2.1-.9 1.2-.7 3.1.1 4.2.5.7 1.2 1.5 2.2 1.5 1.1 0 1.6-.5 2.8-.5 1.2 0 1.5.5 2.7.5 1.1 0 1.6-.7 2.2-1.5.5-.6.7-1 .9-1.7.2-.8.1-1.3-.1-2.1-.3-.7-.8-1.4-1.5-2-.7-.7-1.6-1.1-2.3-1.1-1.1 0-1.6.5-2.7.5-1 0-1.5-.5-2.2-.5z" fill="currentColor"/>
</svg>
